# xmcd
#
# Track frame offsets: 
#        150
#        14450
#        28139
#        41307
#        54856
#        67453
#        79297
#        92953
#        106978
#        116800
#        128377
#        139406
#        152039
#        163220
#        178851
#        190353
#
# Disc length: 2679 seconds
#
# Revision: 2
# Processed by: cddbd v1.5.2PL0 Copyright (c) Steve Scherf et al.
# Submitted via: ExactAudioCopyFreeDBPlugin 1.0
#
DISCID=e50a7510
DTITLE=John Lee Hooker - Anthology 50 Years - CD1
DYEAR=2009
DGENRE=Blues
TTITLE0=Boogie Chillen'
TTITLE1=Hobo Blues
TTITLE2=Hoogie Boogie
TTITLE3=Crawlin' King Snake
TTITLE4=Huckle Up Baby
TTITLE5=Let Your Daddy Ride
TTITLE6=John L's House Rent Boogie
TTITLE7=I'm In The Mood
TTITLE8=Dimples
TTITLE9=I Love You Honey
TTITLE10=No Shoes
TTITLE11=No More Doggin'
TTITLE12=I Need Some Money
TTITLE13=Teachin' The Blues
TTITLE14=Boom Boom
TTITLE15=She's Mine
EXTD=by Columbia No1
EXTT0=
EXTT1=
EXTT2=
EXTT3=
EXTT4=
EXTT5=
EXTT6=
EXTT7=
EXTT8=
EXTT9=
EXTT10=
EXTT11=
EXTT12=
EXTT13=
EXTT14=
EXTT15=
PLAYORDER=
